<?xml version="1.0" encoding="utf-8"?>

<!DOCTYPE svg PUBLIC "-//W3C//DTD SVG 1.1//EN" "http://www.w3.org/Graphics/SVG/1.1/DTD/svg11.dtd">
<svg version="1.1" id="Layer_1" xmlns="http://www.w3.org/2000/svg" xmlns:xlink="http://www.w3.org/1999/xlink" x="0px" y="0px"
	 viewBox="0 0 2342.204 1617.99" enable-background="new 0 0 2342.204 1617.99" xml:space="preserve">
<path d="M96.627,264.944c2.705-1.744,0.392-12.966,8.81-16.456c4.557-1.889-2.432-3.126,0.176-4.887
	c4.739-3.199-1.429-9.265,6.777-19.08c3.411-4.08,0.324-8.195-1.454-12.095l0.091,0.24c7.178,0.782,5.283-6.705,10.498-6.886
	c0.817-0.028,1.882-3.57,2.163-5.588c0.336-2.406,1.385-3.803,3.345-5.181c11.091-7.795,2.771-16.593,13.958-17.314
	c1.963-0.127,4.394,0.755,3.497-2.788c3.52-1.5,5.206-5.668,8.812-6.644c2.471-0.669,3.357-1.696,3.506-3.923
	c0.495-7.375,3.61-2.476,5.995-6.765c6.506-11.702,17.972-10.138,21.492-14.946c4.747-6.484,17.324-5.347,20.464-13.922
	c0,0,6.403-3.668,9.57-13.62c0.677-2.126,3.153-3.682,1.335-6.72c-1.015-1.697,1.435-3.578,2.644-4.992
	c6.518-7.626-2.282-14.062,10.257-19.406c6.556-2.794,0.508-7.828,14.756-15.525c7.46-4.03,15.237,2.82,19.003-6.323
	c0.351-0.853,1.282-1.467,1.946-2.191l-0.143,0.168c10.1-15.417,14.538-4.59,25.175-9.195c2.31-1,4.841-0.698,7.098-0.107
	c6.876,1.803,47.83-4.546,51.642-3.143c6.103,2.247,4.676-1.57,9.075-12.888c5.172-13.307,24.706-20.071,36.912-14.878
	c18.244,7.761,18.28-3.324,23.95,4.613l0.019-0.045c1.37,1.913,2.464,4.381,5.522,2.135c2.743-2.015,3.93,3.904,5.994,0.187
	c3.497-6.3,13.407-2.187,15.413-6.401c0.238-0.499,0.451-0.744,0.698-0.479c3.504,3.755,8.121,1.476,11.301,0.629
	c3.179-0.847,16.636-1.031,17.454-0.003c3.297,4.141,16.428,5.392,19.434,12.476c0.381,0.897,1.969,1.953,2.271,1.323
	c2.14-4.46,7.074,0.084,9.78-3.294c2.624-3.276,6.358,3.905,8.044,4.215c4.847,0.89-4.737,4.935,2.449,6.651
	c3.457,0.826,5.312,2.989,6.322,6.451c1.062,3.639,4.754,5.584,6.682,8.841c1.928,3.256,5.113,0.3,16.614,2.13
	c23.554,3.748,81.32,6.561,131.209,59.522c20.509,21.771,41.627,19.42,49.109,49.542c1.158,4.66,2.239,9.351,4.274,13.738
	c1.319,2.844,0.216,6.117,1.218,8.787c0.946,2.519,4.888,2.332,6.487,4.796c5.491,8.461,9.904,12.113,63.927,34.698
	c2.559,1.07,20.074,0.363,41.388,23.082c9.817,10.464,7.263,31.847-9.8,42.895c-10.834,7.015-0.207,7.65,1,8.178
	c4.475,1.958,8.802,3.782,14.138,3.527c5.71-0.273,11.82,9.212,11.558,16.175c-0.274,7.306-5.452,10.109-7.52,12.348
	c-11.956,12.939,11.747,4.236,24.836,36.997c1.46,3.654,1.3,5.516-2.154,5.419c-3.495-0.098-6.075,2.851-9.552,3.57
	c-1.896,0.393-3.266,3.274-4.897,5.012c-5.394,5.749-12.067-1.567-16.181,6.226c-1.01,1.913-9.745,2.149-4.11,18.544
	c2.335,6.792-1.367,11.213,4.687,16.708c12.462,11.313,20.137,24.846,50.18,36.444c74.435,28.736-19.461,69.566,11.382,94.15
	c12.387,9.874,8.161,32.503,5.827,36.832c-1.927,3.574,1.722,4.13,13.068,4.813c43.018,2.587,42.345,27.307,66.332,26.548
	c7.391-0.234,10.559,4.332,16.374,2.159c10.504-3.925,24.006,1.966,28.668,2.953c6.877,1.457,3.886,8.697,13.321,8.682
	c3.236-0.005,4.73-1.934,4.552-4.324c-1.159-15.58,12.369-90.942,20.789-106.431c3.612-6.644,8.66-10.59,12.64-13.877l-0.163,0.101
	c0.833-0.908,0.646-1.807-0.026-2.701l0.186,0.066c0.7-28.951-0.67-12.801-65.432-22.616c-5.105-0.773-9.121,2.966-8.997-9.007
	c0.038-3.701-2.825-6.068-3.636-9.338c-15.277-61.564-13.929-58.072-19.858-57.077c-4.035,0.678-4.927-0.769-5.485-9.466
	c-0.558-8.706,8.211-1.972,6.795-9.723c-1.643-9.002-7.432-18.404,4.286-72.814c4.069-18.891-9.21-13.834,73.799-25.73
	c10.762-1.542,2.979-5.841,6.548-24.316c1.098-5.682-0.124-5.092,15.747-5.497c4.727-0.12,0.488-0.601,10.366-8.192
	c12.668-9.735,12.699-12.981,22.431-9.799c10.273,3.359,15.498,13.433,20.577,13.798c72.363,5.201,136.163-13.825,142.133,5.616
	c2.813,9.16,1.07,18.963,9.059,18.387c78.08-5.632,131.859-12.31,199.137-41.271c106.164-45.702,60.082-39.101,91.166-64.969
	c80.893-67.319,123.105,288.491,53.554,379.139c-9.402,12.254-35.547,28.617-59.879-15.937
	c-4.884-8.941-51.859-26.273-61.013-29.609c-124.622-45.411-249.535-26.483-216.899-25.362c4.746,0.163,9.319-1.219,14.219-0.677
	c32.421,3.585,39.774,47.223,7.074,64.526c-7.527,3.982,17.185,28.885,4.226,43.205c-4.291,4.741,2.472,1.873,11.861,14.567
	c1.575,2.13,3.168,2.748,5.529,2.502c8.936-0.93,17.943-1.424,26.788-2.898c14.308-2.386,20.701,8.326,35.512-2.881
	c20.554-15.552,29.759-9.372,58.704-14.959c15.546-3,30.663,9.063,54.207,1.565c15.845-5.045,46.043,1.183,52.533,3.114
	c8.215,2.443,26.41-9.161,40.992-12.077c5.495-1.099,1.746-0.937,46.759-0.883c82.379,0.098,29.989-31.947,110.909-27.668
	c10.177,0.538,13.581,7.764,20.661,1.102c12.622-11.877,13.749,4.803,59.306-4.265c16.054-3.195,21.49-2.674,51.951-8.298
	c15.999-2.954,13.494,5.572,21.438,3.537c2.202-0.564,66.612-19.43,66.612-24.854c0,0-0.131,0.123-0.131,0.123
	c13.974-13.511,28.946-43.097,41.078-57.984c5.113-6.273,6.439-4.277,5.701-12.75c-1.538-17.689,2.143-0.125-4.24-31.221
	c-0.695-3.382,2.429-25.104,2.957-26.356c0,0-3.222-49.519-3.65-89.43c-0.074-6.872,13.374-11.48,21.841,0.85
	c10.591,15.424,3.74,13.666,9.478,23.433c3.851,6.555-1.982,9.953,2.158,19.302c2.669,6.027,5.048,12.093,5.498,18.772
	c0.103,1.53,0.868,2.948,1.851,4.174c3.762-2.76,3.295-6.853,4.227-10.333c3.101-11.578,0.003,2.05,11.971-26.347
	c4.962-11.775-1.461-14.948,8.95-51.509c4.123-14.478,5.36-47.717,10.493-62.558c2.361-6.826,24.476-14.989,29.927,16.451
	c2.184-0.204,2.139-1.646,2.315-2.728c1.077-6.613,4.029-12.494,7.226-18.234c5.44-9.768-0.005-12.08,7.63-15.85
	c10.046-4.962,22.063,6.322,21.353,20.229c-0.347,6.811-0.738,9.505,2.482,8.816c9.839-2.106,17.723,3.57,18.955,13.746
	c3.314,27.362-5.55,87.055-10.875,113.914c-3.161,15.942-41.909,127.467,5.169,182.054c29.663,34.393,128.958,19.944,124.09,76.426
	c-2.44,28.314-90.589-20.224-162.175,4.266c-115.747,39.598-60.868-9.468-192.321,32.964c-32.623,10.53-32.356,13.647-34.124,20.488
	c-4.177,16.156-20.485,66.384-36.596,61.604c-1-0.297-35.551-9.551-61.623-11.599c-11.227-0.881-12.248,5.591-33.843,13.139
	c-3.217,1.125-6.666-0.735-9.888,3.267c-16.398,20.37-47.961,26.375-71.901,39.527c-47.075,25.863-50.464,28.089-60.932,31.461
	c-70.02,22.556-210.054,81.999-270.18,98.63c-28.277,7.821-69.947,21.854-69.947,21.854c-9.972,2.005-9.101,6.224-10.256,23.758
	c-4.173,63.34-5.547,56.584-5.659,72.928c-1.694,245.475-16.113,249.848-4.387,336.254c5.421,39.945-26.146,161.879-23.259,211.872
	c0.191,3.311-1.124,31.321-13.71,23.574c-39.859-24.534-32.903-7.247-17.082-169.74c5.662-58.152,17.773-76.941,10.552-83.867
	c-4.322,2.087-4.189,15.051-10.336,30.727c-5.851,14.919,2.119,4.795-13.887,34.283c-76.222,140.43-71.582,144.965-104.071,162.1
	c-41.753,22.02-34.981-11.629-34.627,42.286c-284.807,0-569.613,0-854.42,0c0.002-1-144.235-540.585-127.936-581.672
	c1.007-2.538,3.724-15.182,2.505-16.683c-13.194-0.01-11.463,24.997-25.47,16.765c-10.956-6.439-10.553,17.012-42.881,15.79
	c-2.244-3.754-12.292-5.17-9.772-13.711c1.826-6.188,4.874-11.854,7.409-17.729c1.502-3.482,3.839-4.327,7.395-3.006
	c11.037,4.101,16.379-9.244,28.267-12.133c8.181-1.988,4.877-22.778,9.583-31.203c0.722-1.293-0.611-2.33-1.719-2.684
	c-6.179-1.973-10.302-6.582-14.636-10.991c-1.32-1.343-11.544-3.559-10.84-13.226c1.529-21.001-22.486-12.459-22.59-27.046
	c-0.05-6.975-1.984-13.85-0.529-20.934c1.098-5.346-0.984-10.704-0.736-16.078c-7.593-0.43-9.407-2.085-9.146-9.531
	c0.386-10.99,0.757-22.035,4.739-32.518c0.886-2.332,1.351-4.44-0.325-6.777c-3.167-4.416,6.702-34.229,7.05-35.229
	c1.737-4.992,1.17-10.742,2.523-15.92c2.372-9.073,0.409-17.398-2.912-25.725c-5.509-13.812,13.819-40.842,9.796-45.374
	c-2.501-2.818,5.204-3.274,6.157-12.156c0.925-8.625,3.166-9.18-0.32-9.627c-2.157-0.276-2.598-2.968-0.728-4.551
	c4.835-4.092,6.456-9.852,8.373-15.433c3.077-8.96-6.528-9.299-0.957-10.889c1.298-0.37,3.336-13.854,0.044-20.244
	c-0.601-1.167-0.86-2.867-0.512-4.107c2.322-8.271-2.551-26.681,1.462-33.601c0.466-0.803,0.774-2.037,0.511-2.871
	c-3.17-10.06,3.28-21.213,1.046-32.574c-0.701-3.566-0.876-7.131,1.302-10.416c0.517-0.78,0.978-1.962,0.779-2.795
	c-1.074-4.485-1.151-22.425,1.489-30.13c4.599-13.423-0.308-13.208,2.269-20.224c1.4-3.81-1.635-7.3,0.014-10.901
	c0.278-0.606-0.459-0.924-0.862-1.343c-7.61-7.915,2.664-11.5-0.906-15.91c-4.067-5.022,3.906-6.404,1.567-13.291
	c-1.735-5.108,4.832-11.415,2.43-23.445c-1.45-7.26,2.968-16.328,0.959-22.261c-1.366-4.036,2.119-7.963,2.646-19.171
	c0.246-5.229,6.802-10.001,3.283-16.817c-1.792-3.471,4.19-3.391,0.324-5.625c-0.774-0.447-0.951-1.225-0.397-2.018
	c0.329-0.471,1.083-1.236,1.022-1.303c-3.987-4.392,2.699-12.601-0.02-15.971c-4.2-5.207,2.371-37.73,1.582-39.295
	c-2.057-4.084-1.525-7.955,0.49-11.871c2.069-4.021,1.907-8.73,3.898-12.848c2.098-4.339,5.579,2.607,8.797-4.794
	c1.609-3.7,3.329-7.558,2.632-11.523c-0.797-4.531,1.895-6.913,4.322-9.687L96.627,264.944z M1285.364,1066.471
	c6.175-11.29,15.772-74.265,11.371-124.02c-0.43-4.865-6.649-2.941-6.645,0.327
	C1290.103,953.749,1283.07,1060.103,1285.364,1066.471z M1277.131,1027.677c3.025-5.703,0.331-7.594,1.527-46.833
	c1.153-37.841,0.91-36.581-6.382-34.548c-37.75,10.527-5.472,1.821,1.864,71.635
	C1274.468,1021.055,1274.9,1024.174,1277.131,1027.677z M46.816,869.141c21.538-19.029,6.427-14.773,8.29-19.848
	c1.788-4.87-2.07-25.65-6.526-25.245c-2.08,0.189-6.014,24.398-8.033,28.701C39.277,855.456,40.984,857.518,46.816,869.141z
	 M116.465,673.904c-8.308,16.587-5.393,11.655-4.959,27.46c0.362,13.182-0.073,15.051,2.51,14.937
	c2.722-0.119,1.261-3.29,2.772-6.044c8.817-16.072-0.462-24.913,5.704-36.848c2.052-3.971,0.558-12.13-4.432-15.371
	c-2.759,2.907-2.759,2.907-4.728,10.209C112.25,672.26,112.25,672.26,116.465,673.904z M115.921,625.024
	c-2.806,11.728-3.243,12.184-3,17.104c0.305,6.183,6.451,11.801,8.156,0.143C122.029,635.753,117.419,630.965,115.921,625.024z
	 M283.808,653.124c-7.016-10.438-6.894,0.055-12.315-4.192c-5.047-3.954-9.036,10.146,0.334,7.541
	C275.621,655.418,279.413,654.353,283.808,653.124z M218.36,591.407c-0.121,5.61,11.146,8.226,9.795,4.116
	c-1.106-3.364,3.948-6.815-0.395-9.792C226.16,584.634,218.469,586.355,218.36,591.407z"/>
</svg>
