<?xml version="1.0" encoding="UTF-8"?>
<!DOCTYPE svg PUBLIC "-//W3C//DTD SVG 1.1//EN" "http://www.w3.org/Graphics/SVG/1.1/DTD/svg11.dtd">
<svg version="1.1" xmlns="http://www.w3.org/2000/svg" xmlns:xlink="http://www.w3.org/1999/xlink" x="0" y="0" width="1002" height="1140" viewBox="0, 0, 1002, 1140">
  <defs>
    <clipPath id="Clip_1">
      <path d="M-0,0.03 L1001.9,0.03 L1001.9,1139.94 L-0,1139.94 z"/>
    </clipPath>
  </defs>
  <g id="Layer_1">
    <g clip-path="url(#Clip_1)">
      <path d="M784.679,907.523 C776.911,926.566 769.214,945.638 761.005,965.912 C757.697,956.982 755.724,948.928 751.903,941.877 C742.257,924.078 744.824,904.386 742.103,885.541 C740.583,875.021 740.118,864.349 739.174,853.714 C740.722,853.165 741.133,854.614 741.782,855.353 C755.63,871.115 769.423,886.925 783.261,902.697 C784.523,904.136 785.552,905.382 784.679,907.523 z M1001.9,1131.4 C1001.85,1110.23 1001.87,1089.07 1001.87,1067.91 C1001.87,1058.69 1000.81,1057.61 991.589,1057.61 C938.93,1057.61 886.271,1057.61 833.611,1057.61 C831.909,1057.61 830.207,1057.61 827.97,1057.61 C832.929,1048.26 837.546,1039.82 841.927,1031.26 C860.491,994.964 876.797,957.812 887.492,918.276 C893.19,897.215 893.132,877.362 882.051,858.046 C877.249,849.676 872.499,841.293 866.976,833.374 C844.024,800.464 816.751,771.262 788.828,742.64 C771.036,724.403 752.568,706.85 733.962,689.449 C734.278,689.079 734.438,688.76 734.697,688.606 C772.83,665.845 798.207,632.1 817.229,592.861 C835.946,554.249 846.946,513.247 854.793,471.288 C855.4,468.045 856.433,466.97 859.752,466.707 C873.167,465.646 886.682,464.961 899.424,459.907 C900.878,459.33 902.348,459.546 903.849,459.651 C917.471,460.596 931.104,460.914 944.728,459.796 C958.357,458.678 971.783,456.498 984.727,451.831 C989.45,450.129 991.647,447.103 991.398,442.038 C991.16,437.196 990.601,432.419 989.326,427.753 C982.619,403.21 970.01,381.538 956.375,360.387 C941.674,337.582 923.307,318.705 898.389,306.992 C896.556,306.13 896.054,305.155 896.349,303.148 C897.574,294.811 896.421,286.56 895.26,278.299 C893.727,267.395 889.613,257.065 887.937,246.257 C885.745,232.127 884.94,217.785 882.807,203.645 C877.925,171.276 867.973,140.581 850.738,112.547 C823.329,67.963 783.377,39.287 734.748,21.833 C676.952,1.089 616.907,-1.584 556.435,0.711 C518.092,2.166 480.919,10.218 445.4,25.037 C398.83,44.465 361.38,74.568 336.464,119.099 C316.367,155.018 307.771,194.02 306.043,234.755 C305.662,243.745 305.247,252.573 302.709,261.33 C299.735,271.588 298.236,282.215 298.874,292.922 C299.6,305.11 300.469,317.47 313.909,323.533 C315.057,324.05 314.759,325.215 314.79,326.178 C315.185,338.49 315.538,350.804 315.993,363.114 C316.068,365.118 315.724,365.975 313.409,366.136 C309.105,366.437 304.798,367.06 300.561,367.893 C274.697,372.971 259.119,389.202 257.749,413.945 C256.493,436.643 265.685,454.95 290.78,461.992 C301.437,464.982 312.391,465.776 323.325,466.641 C326.575,466.898 327.667,467.898 328.276,471.181 C334.972,507.216 344.249,542.525 358.895,576.246 C374.184,611.447 394.272,643.28 423.923,668.358 C431.79,675.012 440.334,680.722 449.527,686.412 C443.42,688.526 437.93,690.413 432.449,692.327 C398.273,704.259 364.623,717.798 329.31,726.264 C319.162,728.697 309.004,731.173 297.941,731.746 C302.277,719.532 299.495,709.013 291.977,699.607 C283.921,689.529 273.85,682.055 261.784,677.363 C255.635,674.971 249.031,673.234 242.768,675.012 C237.154,676.607 235.436,673.329 233.054,670.143 C232.274,669.1 231.835,667.789 231.305,666.572 C212.725,623.933 194.176,581.281 175.526,538.672 C174.323,535.923 174.309,534.7 177.469,533.356 C196.73,525.17 215.878,516.716 235.058,508.34 C242.757,504.978 244.077,501.581 240.696,493.82 C228.422,465.649 216.135,437.485 203.861,409.314 C200.018,400.493 197.175,399.281 188.463,403.075 C128.006,429.402 67.557,455.748 7.114,482.109 C-0.308,485.346 -1.572,488.786 1.702,496.301 C14.112,524.775 26.524,553.249 38.933,581.724 C42.343,589.547 45.645,590.898 53.342,587.543 C71.918,579.445 90.573,571.518 108.997,563.087 C113.708,560.931 115.165,562.074 117.028,566.409 C131.649,600.443 146.413,634.417 161.44,668.273 C163.456,672.817 162.608,674.935 158.974,677.978 C145.726,689.071 136.547,702.873 136.105,720.639 C135.385,749.551 147.459,772.423 170.85,789.299 C173.247,791.029 174.924,792.921 176.061,795.651 C180.219,805.639 184.824,815.473 191.003,824.351 C196.646,832.46 201.761,840.564 201.902,850.838 C201.906,851.167 201.984,851.501 202.064,851.823 C211.895,891.182 253.502,908.655 286.366,886.854 C293.534,882.099 301.047,878.549 308.982,875.702 C354.628,859.32 400.312,843.044 445.994,826.765 C447.153,826.353 448.274,825.235 449.768,826.166 C449.119,828.889 447.188,831.083 446.934,833.997 C444.618,860.527 442.304,887.058 439.75,913.566 C439.196,919.326 440.333,925.673 437.483,930.741 C431.472,941.429 428.616,953.262 423.965,964.421 C423.101,966.494 422.531,969.075 424.02,970.639 C427.514,974.307 425.572,977.979 424.825,981.737 C423.624,987.771 422.051,993.763 421.335,999.856 C420.23,1009.26 418.241,1019.45 424.265,1027.45 C428.397,1032.95 428.86,1037.88 427.961,1043.84 C427.589,1046.3 427.002,1048.84 427.24,1051.27 C427.809,1057.08 425.004,1057.73 419.953,1057.73 C317.634,1057.57 215.316,1057.61 112.997,1057.61 C105.302,1057.61 102.838,1060.04 102.83,1067.69 C102.807,1088.69 102.827,1109.69 102.818,1130.68 C102.816,1134.92 103.35,1138.93 108.526,1139.72 C114.938,1140.7 117.001,1139.21 119.009,1132.75 C120.829,1130.65 120.545,1128.08 120.553,1125.6 C120.594,1111.94 120.568,1098.28 120.572,1084.61 C120.575,1075.37 120.576,1075.36 129.892,1075.36 C226.536,1075.36 323.18,1075.36 419.824,1075.36 C517.135,1075.36 614.445,1075.36 711.756,1075.37 C715.406,1075.37 719.083,1075.1 722.56,1076.74 C728.369,1079.46 734.366,1080.07 740.556,1078.09 C742.862,1077.36 745.157,1077.16 747.148,1078.95 C754.719,1085.77 763.285,1086.18 772.355,1082.73 C775.959,1081.36 778.838,1081.71 782,1084.25 C787.852,1088.96 794.599,1089.98 801.784,1087.43 C807.479,1085.41 812.949,1082.93 817.448,1078.81 C820.215,1076.28 823.322,1075.34 827.003,1075.34 C877.658,1075.36 928.312,1075.35 978.967,1075.38 C984.85,1075.38 985.253,1075.81 985.272,1081.6 C985.32,1096.27 985.266,1110.93 985.306,1125.59 C985.313,1128.07 985.021,1130.64 986.737,1132.79 C988.258,1139.08 990.627,1140.73 997.089,1139.73 C1002.05,1138.97 1001.91,1135.21 1001.9,1131.4" fill="#6E4100"/>
    </g>
    <path d="M119.009,1132.75 C118.95,1114.1 118.92,1095.44 118.796,1076.78 C118.78,1074.47 119.439,1073.35 121.888,1073.6 C123.041,1073.72 124.218,1073.62 125.385,1073.62 C278.011,1073.62 430.637,1073.62 583.263,1073.62 C627.581,1073.62 671.9,1073.62 716.218,1073.63 C718.349,1073.63 720.42,1073.47 722.464,1074.75 C728.574,1078.57 735.121,1078.44 741.65,1076.01 C744.211,1075.05 745.772,1074.86 747.89,1077.37 C753.624,1084.17 763.914,1085.32 774.12,1080.4 C777.141,1078.94 778.629,1078.83 781.101,1081.53 C786.579,1087.52 793.807,1088.67 801.268,1086.04 C807.852,1083.73 814.298,1080.8 819.047,1075.35 C820.466,1073.72 822.067,1073.61 823.932,1073.61 C876.918,1073.62 929.904,1073.64 982.89,1073.57 C985.73,1073.56 986.991,1074 986.954,1077.31 C986.744,1095.8 986.783,1114.3 986.737,1132.79 C985.238,1132.76 983.739,1132.71 982.24,1132.71 C695.829,1132.71 409.418,1132.71 123.007,1132.71 C121.674,1132.71 120.342,1132.74 119.009,1132.75" fill="#F0DAAE"/>
    <path d="M610.988,252.173 C617.663,256.635 624.147,260.194 631.726,261.326 C639.674,262.513 643.442,259.647 643.731,251.605 C644.107,241.11 643.858,230.618 642.641,220.186 C642.33,217.512 642.686,216.763 645.526,216.969 C690.161,220.202 734.09,226.886 776.048,243.343 C778.155,244.169 780.328,244.688 780.666,247.771 C783.413,272.855 793.079,295.574 805.073,317.407 C816.752,338.669 830.988,358.092 848.195,375.251 C849.756,376.808 850.486,378.217 850.306,380.44 C845.722,436.956 837.445,492.783 818.875,546.634 C806.688,581.971 790.424,615.121 765.035,643.104 C735.014,676.191 697.529,693.324 652.997,695.956 C629.071,697.37 605.153,699.636 581.215,697.701 C552.228,695.357 522.918,694.99 494.59,687.502 C455.768,677.241 425.97,653.934 402.724,621.744 C378.91,588.767 364.452,551.56 353.998,512.624 C341.957,467.778 335.932,421.983 332.811,375.738 C331.173,351.468 330.456,327.188 330.876,302.865 C330.932,299.649 331.834,297.163 333.734,294.684 C349.333,274.331 369.951,260.578 392.827,249.901 C425.08,234.847 459.331,226.86 494.38,221.909 C504.262,220.513 514.224,219.681 524.112,218.321 C527.029,217.92 528.04,218.835 529.083,221.454 C538.04,243.94 552.441,262.376 571.429,277.255 C578.973,283.166 587.375,287.481 596.846,289.438 C605.822,291.292 610.964,287.526 612.064,278.475 C613.112,269.848 611.562,261.31 610.988,252.173" fill="#FEF5E2"/>
    <path d="M877.2,310.906 C857.432,266.503 820.281,243.476 777.891,226.895 C746.098,214.459 712.818,208.037 679.044,203.998 C648.085,200.295 616.98,199.024 585.829,199.414 C532.09,200.087 478.781,204.474 426.95,219.929 C396.117,229.124 367.036,241.926 342.089,262.807 C331.834,271.391 322.875,281.171 315.286,293.25 C314.118,286.251 315.513,280.152 316.283,274.048 C316.594,271.585 317.044,269.074 317.899,266.756 C323.27,252.189 321.494,236.838 322.906,221.85 C327.061,177.754 339.413,136.714 367.496,101.56 C392.381,70.408 424.572,49.503 461.691,35.923 C504.599,20.225 548.984,14.48 594.58,16.272 C614.71,17.064 634.842,17.408 654.856,19.897 C700.765,25.606 744.603,37.514 783.193,64.241 C825.716,93.692 850.824,134.849 862.78,184.588 C865.05,194.034 866.986,203.559 868.113,214.582 C856.028,199.912 843.21,187.908 829.064,177.32 C815.298,167.017 800.536,158.378 785.048,150.958 C779.485,148.293 774.792,149.511 772.668,154.029 C770.542,158.553 772.454,162.777 778.179,165.524 C808.441,180.042 834.72,199.537 856.354,225.492 C873.355,245.889 878.929,269.833 880.822,295.243 C881.301,301.67 879.927,306.097 877.2,310.906" fill="#FEFEFE"/>
    <path d="M533.929,713.176 C550.75,730.348 570.386,736.495 592.72,736.16 C614.833,735.828 634.079,728.99 649.687,712.931 C651.248,714.668 650.621,716.41 650.629,717.98 C650.792,752.299 650.558,786.624 651.13,820.936 C651.648,852.038 652.689,883.142 654.141,914.215 C655.391,940.947 657.046,967.682 660.072,994.285 C662.382,1014.59 664.793,1034.92 671.074,1054.5 C671.871,1056.99 671.44,1057.7 668.822,1057.7 C646.33,1057.63 623.837,1057.63 601.344,1057.7 C598.741,1057.71 597.857,1056.85 597.883,1054.25 C597.989,1043.75 597.961,1033.25 597.899,1022.76 C597.887,1020.71 598.518,1019.98 600.689,1019.7 C606.27,1018.97 609.295,1015.51 608.85,1010.99 C608.385,1006.27 605.14,1003.81 599.225,1003.79 C592.727,1003.76 586.228,1003.73 579.731,1003.8 C574.34,1003.86 571.184,1006.61 570.936,1011.27 C570.685,1016 573.386,1019.22 578.777,1019.66 C581.593,1019.9 581.978,1021.03 581.959,1023.38 C581.879,1033.54 581.808,1043.71 581.993,1053.87 C582.052,1057.1 580.78,1057.73 577.887,1057.71 C557.561,1057.62 537.234,1057.66 516.907,1057.67 C514.411,1057.67 512.142,1057.96 513.39,1054 C519.519,1034.55 521.819,1014.4 524.138,994.243 C527.713,963.161 529.447,931.948 530.779,900.723 C532.227,866.801 532.778,832.848 533.37,798.894 C533.844,771.751 533.66,744.615 533.927,717.477 C533.937,716.506 533.929,715.534 533.929,713.176" fill="#999999"/>
    <path d="M820.628,1036.69 C810.69,1025.12 797.048,1020.05 784.545,1013.25 C778.494,1009.96 772.984,1006.09 767.986,1001.35 C765.85,999.318 765.422,997.841 766.577,995.016 C778.286,966.373 789.722,937.617 801.465,908.987 C803.536,903.938 802.649,900.317 799.133,896.342 C777.289,871.648 755.607,846.811 733.903,821.994 C727.949,815.186 726.619,806.39 724.316,798.146 C715.452,766.402 713.92,733.892 714.904,701.161 C714.951,699.587 715.131,698.27 716.849,697.507 C718.526,696.763 719.334,697.859 720.274,698.742 C743.585,720.627 766.795,742.604 788.8,765.837 C804.264,782.163 819.506,798.659 833.727,816.083 C845.956,831.064 857.253,846.663 866.833,863.53 C875.523,878.829 877.257,894.311 872.705,911.486 C863.746,945.287 850.561,977.341 835.319,1008.65 C830.754,1018.03 826.352,1027.52 820.628,1036.69" fill="#999999"/>
    <path d="M223.815,860.549 C232.396,865.571 240.435,869.257 249.451,869.685 C268.11,870.572 281.053,861.527 290.031,845.798 C292.6,841.299 293.569,835.816 298.731,832.867 C300.461,831.878 301.663,828.969 300.675,827.033 C297.095,820.021 298.388,812.376 297.319,805.062 C295.59,793.241 291.816,782.086 286.598,771.466 C283.068,764.279 282.521,755.511 274.906,750.342 C277.902,748.723 280.395,747.646 283.087,747.774 C314.707,749.276 344.104,739.405 373.579,730.063 C404.018,720.415 433.604,708.299 464.024,698.573 C468.418,697.168 469.081,697.939 469.318,702.342 C471.087,735.132 468.001,767.402 459.89,799.218 C458.89,803.141 457.384,805.765 453.065,807.282 C407.422,823.313 361.871,839.608 316.292,855.822 C315.396,856.14 314.464,856.36 312.635,856.891 C315.615,849.121 318.263,842.042 319.529,834.561 C321.527,822.761 321.594,811.054 318.033,799.52 C316.528,794.647 312.677,792.544 308.046,793.762 C303.855,794.864 301.715,798.766 302.638,803.483 C303.308,806.904 304.092,810.32 304.471,813.777 C307.268,839.262 292.462,870.025 267.66,878.5 C251.22,884.117 231.349,876.312 223.815,860.549" fill="#9A9A9A"/>
    <path d="M223.505,495.003 C222.89,496.577 221.105,496.846 219.724,497.452 C198.238,506.875 176.732,516.251 155.223,525.622 C122.427,539.909 89.598,554.123 56.862,568.546 C53.006,570.245 51.212,570.09 49.414,565.854 C39.86,543.34 30.074,520.923 20.14,498.574 C18.597,495.103 19.742,494.129 22.672,492.856 C72.732,471.118 122.752,449.289 172.78,427.48 C177.813,425.286 182.879,423.161 187.865,420.865 C189.89,419.933 190.993,419.927 192.022,422.316 C202.157,445.85 212.416,469.331 222.637,492.829 C222.902,493.439 223.131,494.064 223.505,495.003" fill="#9A9A9A"/>
    <path d="M517.903,818.386 C516.206,871.963 514.549,925.509 509.714,978.897 C507.765,1000.42 505.438,1021.94 499.96,1042.94 C496.131,1057.62 496.095,1057.61 480.993,1057.61 C469.667,1057.61 458.34,1057.51 447.016,1057.68 C443.802,1057.73 442.453,1057 443.027,1053.54 C443.705,1049.46 442.635,1044.06 444.897,1041.57 C446.958,1039.31 452.297,1042.06 456.237,1042.22 C464.249,1042.53 472.187,1042.15 480.089,1040.72 C487.084,1039.46 491.236,1035.53 492.902,1028.55 C495.495,1017.68 497.166,1006.66 498.458,995.608 C499.905,983.235 501.426,970.93 505.14,958.966 C506.109,955.843 506.218,952.412 506.43,949.104 C506.884,942.038 504.797,939.366 497.862,938.062 C484.791,935.606 471.721,933.13 458.608,930.91 C455.553,930.392 454.399,929.568 454.718,926.215 C457.509,896.899 460.116,867.566 462.825,838.242 C462.943,836.959 463.364,835.642 463.914,834.468 C477.25,806.007 482.546,775.665 484.915,744.65 C485.929,731.366 486.072,718.052 485.582,704.74 C485.498,702.459 485.885,701.805 488.309,702.473 C497.291,704.949 506.372,707.029 515.671,707.919 C518.198,708.161 517.933,709.844 517.932,711.503 C517.924,730.324 517.909,749.145 517.904,767.966 C517.899,784.773 517.903,801.579 517.903,818.386" fill="#B9DEFE"/>
    <path d="M683.81,1038.74 C678.991,1020.04 676.736,1001.06 674.957,982.027 C670.168,930.808 668.465,879.435 667.414,828.026 C666.646,790.407 666.511,752.787 666.366,715.165 C666.353,711.728 667.414,710.551 670.674,710.222 C680.097,709.271 689.244,706.78 698.705,704.471 C698.891,720.016 698.435,735.156 699.874,750.258 C702.647,779.378 707.881,807.874 720.557,834.545 C722.648,838.946 722.1,843.701 722.552,848.269 C725.127,874.257 727.344,900.281 729.798,926.282 C730.072,929.187 729.387,930.354 726.342,930.865 C713.23,933.068 700.168,935.566 687.084,937.936 C679.74,939.266 677.639,941.633 677.966,948.991 C678.136,952.799 678.19,956.806 679.408,960.339 C685.004,976.567 684.977,993.699 687.93,1010.34 C687.988,1010.67 687.958,1011.03 688.081,1011.33 C692.225,1021.29 686.934,1029.83 683.81,1038.74" fill="#B9DEFE"/>
    <path d="M228.174,789.803 C204.008,790.731 183.176,782.907 167.325,764.471 C155.216,750.387 149.088,733.642 153.079,714.96 C158.337,690.345 190.532,671.058 213.903,677.686 C215.179,678.048 216.467,678.429 217.674,678.971 C221.616,680.743 224.209,683.716 224.363,688.111 C224.512,692.335 221.517,694.731 218.163,696.433 C213.06,699.023 207.321,699.493 201.859,700.896 C196.757,702.207 194.145,705.747 195.064,710.32 C195.933,714.636 198.717,716.954 203.21,716.802 C211.523,716.522 219.833,716.145 228.145,715.821 C232.002,715.67 235.783,716.252 239.512,717.167 C243.7,718.195 245.948,720.823 245.031,725.18 C243.264,733.572 239.329,740.413 230.64,743.402 C225.793,745.07 223.526,748.459 224.455,752.734 C225.424,757.197 228.419,759.239 233.758,758.978 C240.063,758.669 246.368,757.875 252.674,758.791 C258.635,759.656 264.997,760.289 267.577,766.906 C269.296,771.313 264.098,780.609 258.604,784.185 C252.697,788.029 245.996,789.242 239.158,789.755 C235.516,790.028 231.836,789.803 228.174,789.803" fill="#FEF5E2"/>
    <path d="M919.942,443.657 C926.38,431.224 928.443,418.097 925.164,404.523 C919.898,382.719 903.957,372.663 883.537,367.881 C882.565,367.653 881.583,367.339 880.6,367.318 C877.309,367.246 876.855,365.992 877.377,362.691 C878.886,353.153 879.323,343.49 878.165,333.854 C877.773,330.6 877.752,328.022 881.788,327.188 C883.169,326.902 884.8,326.039 885.577,324.924 C889.149,319.794 892.844,321.838 896.942,324.141 C913.963,333.705 927.627,346.889 938.572,362.893 C952.768,383.65 965.9,405.042 973.001,429.437 C975.918,439.458 977.163,437.789 966.931,440.304 C953.117,443.7 938.976,444.24 924.84,444.659 C923.226,444.706 921.534,444.739 919.942,443.657" fill="#FEFEFE"/>
    <path d="M211.103,660.592 C200.069,659.424 189.98,661.063 180.304,664.965 C176.758,666.395 176.791,663.516 176.058,661.846 C166.632,640.374 157.294,618.864 147.929,597.365 C142.283,584.406 136.709,571.414 130.922,558.518 C129.521,555.396 129.931,553.946 133.258,552.628 C140.676,549.691 147.989,546.46 155.195,543.033 C158.377,541.52 159.648,542.211 161.01,545.363 C175.591,579.1 190.322,612.772 205.006,646.464 C206.984,651.003 208.93,655.555 211.103,660.592" fill="#EABF6A"/>
    <path d="M811.057,1055.32 C811.019,1062.65 801.871,1071.13 794.277,1070.87 C792.16,1070.79 791.725,1069.46 792.319,1067.79 C793.263,1065.13 794.428,1062.56 795.466,1059.94 C797.434,1054.97 796.262,1050.83 792.305,1048.68 C788.316,1046.52 784.167,1047.77 781.242,1052.24 C778.486,1056.46 775.319,1060.27 771.343,1063.37 C769.372,1064.9 767.291,1066.33 764.768,1066.77 C763.352,1067.02 761.645,1067.9 760.526,1066.52 C759.563,1065.34 760.722,1063.97 761.206,1062.83 C762.71,1059.3 764.142,1055.84 764.12,1051.86 C764.097,1047.66 762.478,1044.75 758.35,1043.68 C754.048,1042.57 750.796,1044.21 748.934,1048.19 C746.528,1053.33 743.045,1057.45 738.044,1060.12 C736.058,1061.19 733.527,1062.76 731.575,1061.02 C729.897,1059.53 730.926,1056.98 731.52,1054.9 C732.348,1052 733.661,1049.36 735.35,1046.85 C737.816,1043.18 737.416,1039.56 734.33,1036.43 C731.461,1033.53 727.017,1033.45 723.452,1036.3 C718.002,1040.65 713.392,1046.03 707.476,1049.81 C705.504,1051.07 703.283,1053.64 700.965,1052.12 C698.531,1050.53 699.201,1047.29 699.825,1044.7 C702.971,1031.64 707.065,1019.05 718.406,1010.44 C730.436,1001.3 742.144,1000.43 753.405,1010.4 C765.692,1021.27 779.626,1028.95 793.975,1036.29 C798.265,1038.48 802.352,1041.1 805.843,1044.47 C808.888,1047.42 811.396,1050.71 811.057,1055.32" fill="#FEF5E2"/>
    <path d="M797.268,253.188 C808.534,258.78 817.816,264.805 826.565,271.685 C838.028,280.7 847.686,291.276 855.579,303.618 C859.835,310.274 860.954,317.434 861.491,324.913 C862.426,337.955 864.082,351.023 860.356,364.992 C829.974,332.932 807.771,297.18 797.268,253.188" fill="#9A9A9A"/>
    <path d="M910.684,417.237 C909.849,436.859 900.831,445.746 878.558,448.757 C873.454,449.447 868.274,449.639 863.202,450.493 C859.391,451.135 858.237,450.288 858.911,446.292 C861.315,432.026 862.919,417.649 864.345,403.254 C864.804,398.622 865.26,393.99 865.717,389.357 C866.222,384.229 869.026,382.04 874.209,382.641 C883.273,383.693 891.795,386.263 899.116,391.901 C906.902,397.897 911.106,407.316 910.684,417.237" fill="#FEF5E2"/>
    <path d="M273.514,417.074 C273.091,401.729 282.111,390.062 298.354,384.999 C303.296,383.459 308.421,382.835 313.518,382.054 C316.393,381.613 317.271,382.836 317.465,385.542 C318.961,406.455 321.268,427.285 324.381,448.02 C324.684,450.034 324.391,450.884 322.275,450.633 C313.038,449.535 303.688,449.135 294.704,446.431 C280.187,442.062 273.965,433.394 273.514,417.074" fill="#FEF5E2"/>
    <path d="M483.625,984.869 C482.098,997.564 480.557,1009.59 478.075,1021.49 C477.61,1023.71 476.864,1025.2 474.444,1025.46 C464.811,1026.52 455.185,1027.07 445.745,1024.21 C438.33,1021.96 436.569,1019.73 436.524,1012.09 C436.462,1001.52 438.92,991.33 441.455,981.156 C442.003,978.956 442.909,978.919 444.942,979.359 C457.604,982.099 470.243,985.093 483.625,984.869" fill="#B9DEFE"/>
    <path d="M563.776,216.053 C583.17,215.38 602.566,215.63 621.963,215.866 C628.141,215.942 626.892,220.271 626.808,223.988 C626.021,228.357 627.432,232.708 626.917,237.076 C626.714,238.792 627.421,240.723 625.712,242.075 C618.759,238.727 613.56,232.845 606.874,229.077 C603.658,227.265 600.608,225.94 597.05,227.867 C593.24,229.93 592.669,233.429 592.926,237.284 C593.614,247.562 595.72,257.68 596.174,268.001 C596.379,272.656 594.971,272.768 591.615,270.83 C589.748,269.752 587.803,268.809 585.893,267.805 C576.029,254.608 569.662,239.688 564.57,224.17 C563.728,221.605 562.171,218.933 563.776,216.053" fill="#9A9A9A"/>
    <path d="M238.915,806.092 C249.567,804.806 259.58,803.294 268.134,797.179 C269.632,796.108 270.375,796.362 271.085,798.023 C274.41,805.801 277.742,813.577 281.237,821.279 C282.131,823.25 281.356,823.921 279.778,824.606 C271.411,828.239 263.04,831.866 254.716,835.595 C252.689,836.503 251.807,835.869 251.005,833.986 C247.11,824.847 243.114,815.752 238.915,806.092" fill="#EABF6A"/>
    <path d="M246.993,690.473 C259.871,690.8 279.469,705.085 283.421,716.666 C285.258,722.051 283.09,727.817 277.82,731.327 C274.41,733.599 270.56,734.741 266.517,734.438 C262.621,734.145 259.652,733.753 260.697,727.674 C263.034,714.073 256.334,705.168 243.002,701.42 C241.378,700.963 237.529,702.25 238.203,699.025 C238.837,695.99 239.096,691.777 243.549,690.9 C244.846,690.644 246.179,690.57 246.993,690.473" fill="#FEF5E2"/>
    <path d="M480.202,969.006 C467.107,967.917 455.772,965.359 444.428,962.815 C442.376,962.354 441.956,961.509 442.81,959.739 C442.953,959.443 442.982,959.095 443.104,958.787 C444.808,954.485 445.397,948.734 448.548,946.299 C451.645,943.904 457.047,947.025 461.421,947.777 C469.93,949.24 478.389,950.99 486.907,952.394 C489.511,952.823 490.352,953.754 489.552,956.268 C488.899,958.322 488.518,960.465 487.835,962.508 C486.389,966.835 484.098,970.065 480.202,969.006" fill="#B9DEFE"/>
    <path d="M706.904,968.771 C699.355,968.849 693.082,960.102 694.631,954.042 C695.066,952.341 696.363,952.707 697.341,952.52 C709.227,950.248 721.132,948.079 733.017,945.804 C735.325,945.363 736.681,945.741 737.434,948.286 C738.559,952.088 740.09,955.772 741.505,959.484 C742.123,961.103 742.288,962.283 740.089,962.776 C728.602,965.351 717.129,967.987 706.904,968.771" fill="#B9DEFE"/>
    <path d="M240.527,850.135 C219.185,840.635 207.823,822.229 196.728,802.38 C204.905,804.054 212.268,805.913 219.871,805.986 C221.624,806.002 221.933,807.438 222.448,808.618 C228.485,822.452 234.503,836.295 240.527,850.135" fill="#FEF5E2"/>
    <path d="M563.776,216.053 C567.702,232.683 574.435,248.112 583.548,262.543 C584.562,264.15 586.429,265.473 585.893,267.805 C568.59,255.89 555.776,240.191 546.41,221.473 C544.43,217.514 545.055,216.506 549.408,216.631 C554.188,216.768 558.986,216.273 563.776,216.053" fill="#FEFEFE"/>
    <path d="M702.898,1002.17 C702.176,996.203 699.592,990.136 701.49,986.272 C703.432,982.32 710.396,984.925 715.117,984.074 C723.116,982.633 731.088,981.067 739.062,979.502 C740.263,979.266 741.862,978.088 742.502,979.919 C743.315,982.246 744.19,984.81 743.951,987.161 C743.764,988.996 741.412,987.805 740.148,987.69 C728.04,986.586 717.626,990.627 708.225,997.897 C706.669,999.1 705.156,1000.36 702.898,1002.17" fill="#B9DDFE"/>
    <path d="M617.766,715.572 C598.6,722.218 579.636,722.324 560.94,713.808 C560.81,711.911 561.995,712.372 563.063,712.624 C576.294,713.307 589.525,713.99 602.755,714.673 C607.361,713.938 611.995,714.488 616.614,714.373 C617.371,714.355 617.812,714.76 617.766,715.572" fill="#FCF3DF"/>
    <path d="M625.712,242.075 C626.703,236.084 624.673,229.91 626.808,223.988 C626.869,225.224 626.93,226.459 626.991,227.695 C628.119,231.694 626.74,235.849 627.748,239.856 C627.98,240.93 628.451,242.196 627.565,242.985 C626.905,243.572 626.147,242.794 625.712,242.075" fill="#E9E3DC"/>
    <path d="M617.766,715.572 C612.844,713.92 607.719,715.635 602.755,714.673 C608.385,713.125 614.112,714.527 619.995,713.619 C619.628,715.31 618.66,715.39 617.766,715.572" fill="#D3C2A6"/>
    <path d="M257.051,852.053 C259.819,850.828 262.587,849.602 265.356,848.377 C265.535,848.752 265.714,849.128 265.893,849.503 C263.669,851.305 261.136,852.539 258.133,852.908 C257.146,853.415 256.951,852.921 257.051,852.053" fill="#EEE1CA"/>
    <path d="M627.748,239.856 C626.072,235.891 627.199,231.751 626.991,227.695 C628.253,231.685 627.889,235.777 627.748,239.856" fill="#E0DBD6"/>
    <path d="M563.063,712.624 C562.36,713.027 561.238,712.679 560.94,713.808 C560.161,713.4 559.382,712.992 558.254,712.4 C560.284,711.541 561.705,711.667 563.063,712.624" fill="#C1AB8B"/>
    <path d="M257.051,852.053 C257.411,852.338 257.772,852.623 258.133,852.908 C257.237,853.659 256.214,853.88 255.044,853.646 C255.13,852.364 256.243,852.398 257.051,852.053" fill="#DCCDB3"/>
    <path d="M406.605,521.765 C394.65,520.483 380.457,518.981 368.433,509.275 C357.552,500.492 354.3,485.531 361.753,473.614 C370.976,458.867 384.245,450.989 401.542,448.585 C423.553,445.524 443.811,456.311 452.951,474.641 C459.048,486.868 455.81,496.988 446.983,505.91 C436.708,516.294 424.09,522.222 406.605,521.765" fill="#FFE0C5"/>
    <path d="M783.474,518.898 C770.858,517.975 758.487,516.252 747.797,508.42 C736.222,499.939 732.54,486.376 740.728,473.514 C748.002,462.09 758.388,455.163 771.375,452.237 C788.321,448.418 803.823,451.428 816.407,464.034 C821.803,469.439 825.918,475.911 826.939,483.891 C828.177,493.579 823.428,500.586 816.676,506.45 C807.232,514.652 796.457,519.748 783.474,518.898" fill="#FFE0C5"/>
    <path d="M664.538,637.509 C668.068,639.051 671.029,640.154 673.809,641.605 C677.607,643.587 679.009,646.808 677.169,650.79 C675.329,654.772 671.912,655.796 667.974,654.244 C637.602,642.269 606.19,642.507 574.52,646.366 C558.648,648.301 543.043,651.584 528.006,657.251 C523.718,658.867 520.018,657.15 518.556,653.341 C517.071,649.474 518.952,645.624 523.475,643.936 C540.72,637.496 558.667,634.098 576.871,631.87 C599.481,629.103 622.047,629.446 644.536,633.061 C646.839,633.432 648.161,632.985 649.463,631.066 C655.347,622.39 661.315,613.77 667.37,605.213 C668.604,603.469 668.909,602.534 667.152,600.741 C663.904,597.425 663.975,593.089 666.692,589.963 C669.351,586.904 673.709,586.306 677.552,588.827 C682.699,592.203 687.77,595.709 692.716,599.372 C696.33,602.049 697.137,606.411 694.88,609.995 C692.498,613.776 688.942,614.892 684.959,613.111 C682.831,612.161 681.916,612.335 680.626,614.252 C675.432,621.977 670.051,629.575 664.538,637.509" fill="#6E4100"/>
    <path d="M513.109,408.429 C512.85,416.14 510.62,424.349 504.299,430.931 C498.485,436.984 491.511,437.067 485.356,431.423 C473.582,420.627 472.966,398.959 484.11,387.595 C491.109,380.457 502.07,381.231 507.964,389.368 C511.812,394.682 513.116,400.791 513.109,408.429" fill="#6E4100"/>
    <path d="M707.089,407.633 C706.899,415.818 704.751,423.37 699.43,429.75 C693.329,437.064 685.501,437.414 678.738,430.837 C667.65,420.053 667.353,398.815 678.136,387.795 C685.708,380.056 697.077,381.285 702.762,390.502 C705.993,395.74 707.327,401.49 707.089,407.633" fill="#6E4100"/>
    <path d="M520.327,276.534 C520.287,281.189 516.029,283.609 510.786,281.617 C502.854,278.602 495.256,274.841 488.139,270.202 C483.686,267.3 479.35,264.213 475.039,261.102 C471.671,258.672 470.727,255.385 473.387,252.074 C475.833,249.03 479.109,249.019 482.226,251.435 C492.667,259.529 503.963,266.116 516.337,270.79 C519.051,271.816 520.089,273.86 520.327,276.534" fill="#6E4100"/>
    <path d="M664.2,282.368 C660.74,282.263 658.613,280.529 658.112,277.376 C657.565,273.937 659.422,271.779 662.619,270.565 C673.714,266.353 683.899,260.482 693.452,253.479 C694.79,252.498 696.032,251.329 697.489,250.576 C700.353,249.095 703.108,249.615 705.054,252.161 C706.987,254.688 707.103,257.803 704.64,259.841 C692.913,269.545 679.993,277.254 665.507,282.166 C665.044,282.323 664.527,282.32 664.2,282.368" fill="#6E4100"/>
    <path d="M601.914,435.462 C602.013,439.764 600.488,442.231 597.652,443.748 C594.589,445.387 591.406,445.187 588.86,442.802 C583.866,438.123 581.972,431.897 581.632,425.351 C581.459,422.028 583.676,419.549 587.12,418.464 C590.355,417.445 593.612,418.01 595.144,420.692 C597.97,425.638 599.951,431.067 601.914,435.462" fill="#6E4300"/>
  </g>
</svg>
