<?xml version="1.0" encoding="UTF-8"?>
<!DOCTYPE svg PUBLIC "-//W3C//DTD SVG 1.1//EN" "http://www.w3.org/Graphics/SVG/1.1/DTD/svg11.dtd">
<svg version="1.1" xmlns="http://www.w3.org/2000/svg" xmlns:xlink="http://www.w3.org/1999/xlink" x="0" y="0" width="996.467" height="428.279" viewBox="0, 0, 996.467, 428.279">
  <g id="Layer_1">
    <path d="M992.717,277.108 C992.717,277.108 971.502,278.738 942.122,275.473 C912.747,272.208 916.007,265.683 904.582,242.828 C893.157,219.978 818.082,267.313 791.967,273.838 C769.117,272.208 778.912,257.518 767.482,249.358 C756.057,241.198 664.657,278.738 648.332,278.738 C632.017,278.738 648.332,246.093 618.957,242.828 C589.572,239.568 530.822,272.208 506.337,272.208 C481.852,272.208 504.707,254.253 486.752,244.458 C468.802,234.668 401.877,272.208 374.132,273.838 C346.387,275.473 338.222,275.473 331.697,259.148 C325.167,242.828 312.112,229.773 290.892,244.458 C269.672,259.153 191.332,270.573 166.847,265.683 C142.367,260.778 148.897,236.303 135.837,229.773 C122.782,223.243 116.252,241.198 95.037,257.518 C73.817,273.838 41.172,270.573 10.162,268.943 C7.717,311.573 -24.948,376.908 41.552,404.908 C108.052,432.908 705.382,427.073 756.717,428.238 C808.052,429.408 956.217,404.903 969.052,393.238 C981.882,381.573 992.717,277.108 992.717,277.108" fill="#97D2D8" id="path833"/>
    <path d="M245.137,311.283 C235.507,319.158 155.887,344.528 143.632,344.528 C141.007,359.408 120.887,376.033 121.757,375.153 C124.382,372.533 111.257,385.658 106.007,390.033 C100.762,394.408 83.262,398.783 81.512,393.533 C79.762,388.278 92.012,379.528 96.387,378.658 L106.882,366.403 C106.882,366.403 100.762,363.783 96.387,365.533 C92.012,367.283 75.382,378.658 75.382,378.658 C75.382,378.658 63.132,389.158 56.132,391.783 C49.132,394.408 45.632,390.903 42.137,386.528 C36.882,387.408 35.137,382.153 35.137,378.658 C29.012,376.908 36.007,361.158 36.007,361.158 C36.007,361.158 33.387,365.533 38.632,353.278 C41.257,345.408 65.762,331.403 69.257,330.533 C75.382,326.158 111.257,315.658 115.632,314.783 C152.382,274.528 196.132,261.403 204.012,258.783 C211.882,256.158 225.007,252.653 227.637,252.653 L249.512,261.403 C249.512,261.403 251.257,301.658 245.137,311.283" fill="#F4BB9D" id="path835"/>
    <path d="M245.137,311.283 C235.507,319.158 155.887,344.528 143.632,344.528 C141.007,359.408 120.887,376.033 121.757,375.153 C124.382,372.533 111.257,385.658 106.007,390.033 C100.762,394.408 83.262,398.783 81.512,393.533 C79.762,388.278 92.012,379.528 96.387,378.658 L106.882,366.403 C106.882,366.403 100.762,363.783 96.387,365.533 C92.012,367.283 75.382,378.658 75.382,378.658 C75.382,378.658 63.132,389.158 56.132,391.783 C49.132,394.408 45.632,390.903 42.137,386.528 C36.882,387.408 35.137,382.153 35.137,378.658 C29.012,376.908 36.007,361.158 36.007,361.158 C36.007,361.158 33.387,365.533 38.632,353.278 C41.257,345.408 65.762,331.403 69.257,330.533 C75.382,326.158 111.257,315.658 115.632,314.783 C152.382,274.528 196.132,261.403 204.012,258.783 C211.882,256.158 225.007,252.653 227.637,252.653 L249.512,261.403 C249.512,261.403 251.257,301.658 245.137,311.283 z" fill-opacity="0" stroke="#1A1919" stroke-width="7.5" stroke-linecap="round" stroke-linejoin="round" id="path837"/>
    <path d="M224.137,254.408 L246.882,269.283 C246.882,269.283 240.917,321.718 237.262,312.153 C222.367,273.228 191.757,264.028 191.757,264.028 L218.887,254.408 C218.887,254.408 221.417,252.958 224.137,254.408" fill="#1A1919" id="path839"/>
    <path d="M378.132,5.903 C363.262,3.283 291.512,-5.467 246.012,48.783 L252.137,48.783 C248.632,49.653 204.012,72.408 191.757,139.783 C188.262,144.158 189.132,143.283 184.762,145.033 C186.512,149.408 191.757,152.908 197.012,150.278 C194.382,160.783 188.262,235.153 244.257,274.528 C246.012,275.408 311.632,263.158 311.632,263.158 L458.632,82.908 L476.132,72.408 C476.132,72.408 459.512,60.158 454.257,57.533 C447.257,46.158 428.007,16.408 378.132,5.903" fill="#2D2118" id="path841"/>
    <path d="M378.132,5.903 C363.262,3.283 291.512,-5.467 246.012,48.783 L252.137,48.783 C248.632,49.653 204.012,72.408 191.757,139.783 C188.262,144.158 189.132,143.283 184.762,145.033 C186.512,149.408 191.757,152.908 197.012,150.278 C194.382,160.783 188.262,235.153 244.257,274.528 C246.012,275.408 311.632,263.158 311.632,263.158 L458.632,82.908 L476.132,72.408 C476.132,72.408 459.512,60.158 454.257,57.533 C447.257,46.158 428.007,16.408 378.132,5.903 z" fill-opacity="0" stroke="#1A1919" stroke-width="7.5" stroke-linecap="round" stroke-linejoin="round" id="path843"/>
    <path d="M694.887,272.778 C704.512,276.283 746.507,280.658 759.632,283.278 C772.757,285.903 833.132,271.033 841.882,267.533 C845.382,261.403 869.887,257.028 874.262,275.408 C878.637,293.783 878.637,299.908 881.257,308.658 C883.887,317.408 895.257,327.908 886.507,348.033 C886.507,355.033 890.007,362.908 885.632,366.403 C881.257,369.908 876.007,371.658 875.137,368.158 C870.762,364.653 874.262,364.653 874.262,364.653 C874.262,364.653 869.007,370.778 864.632,365.533 C859.382,366.403 857.637,364.653 856.762,359.408 C855.007,362.028 850.632,361.158 849.757,356.783 C846.257,355.903 846.257,351.528 847.132,347.153 C848.012,342.778 843.637,321.783 841.882,316.528 C834.887,320.033 806.007,333.158 786.762,336.658 C767.507,340.153 715.882,335.778 694.007,334.028 C695.762,326.158 701.007,278.033 694.887,272.778" fill="#F4BB9D" id="path845"/>
    <path d="M694.887,272.778 C704.512,276.283 746.507,280.658 759.632,283.278 C772.757,285.903 833.132,271.033 841.882,267.533 C845.382,261.403 869.887,257.028 874.262,275.408 C878.637,293.783 878.637,299.908 881.257,308.658 C883.887,317.408 895.257,327.908 886.507,348.033 C886.507,355.033 890.007,362.908 885.632,366.403 C881.257,369.908 876.007,371.658 875.137,368.158 C870.762,364.653 874.262,364.653 874.262,364.653 C874.262,364.653 869.007,370.778 864.632,365.533 C859.382,366.403 857.637,364.653 856.762,359.408 C855.007,362.028 850.632,361.158 849.757,356.783 C846.257,355.903 846.257,351.528 847.132,347.153 C848.012,342.778 843.637,321.783 841.882,316.528 C834.887,320.033 806.007,333.158 786.762,336.658 C767.507,340.153 715.882,335.778 694.007,334.028 C695.762,326.158 701.007,278.033 694.887,272.778 z M872.507,350.658 C872.507,350.658 874.262,358.533 874.262,364.653 M863.757,352.408 C863.757,352.408 864.632,360.278 865.512,362.908 M855.882,351.528 C855.882,351.528 855.882,356.783 856.762,359.408" fill-opacity="0" stroke="#1A1919" stroke-width="7.5" stroke-linecap="round" stroke-linejoin="round" id="path847"/>
    <path d="M674.757,362.028 C692.257,372.533 713.262,387.408 736.007,380.408 C758.757,373.403 782.387,338.403 792.012,315.658 C798.132,318.278 814.757,329.653 821.762,334.028 C823.507,338.403 825.257,354.158 833.132,353.278 C841.007,352.408 841.882,348.903 841.882,346.283 C847.132,348.903 853.262,345.408 852.387,339.283 C856.762,341.033 858.507,338.403 858.507,331.403 C862.012,327.908 862.882,326.158 862.012,320.903 C861.137,315.658 867.257,311.283 859.382,305.153 C855.007,295.533 848.887,286.783 832.257,277.153 C825.257,268.403 799.007,236.033 778.887,242.153 C770.137,242.153 762.257,254.408 760.512,264.028 C757.882,266.658 731.632,300.778 726.387,306.908 C717.637,305.153 697.507,290.278 691.387,285.033 C686.137,287.653 657.257,348.033 659.887,351.528 C662.507,355.033 674.757,362.028 674.757,362.028" fill="#F4BB9D" id="path849"/>
    <path d="M674.757,362.028 C692.257,372.533 713.262,387.408 736.007,380.408 C758.757,373.403 782.387,338.403 792.012,315.658 C798.132,318.278 814.757,329.653 821.762,334.028 C823.507,338.403 825.257,354.158 833.132,353.278 C841.007,352.408 841.882,348.903 841.882,346.283 C847.132,348.903 853.262,345.408 852.387,339.283 C856.762,341.033 858.507,338.403 858.507,331.403 C862.012,327.908 862.882,326.158 862.012,320.903 C861.137,315.658 867.257,311.283 859.382,305.153 C855.007,295.533 848.887,286.783 832.257,277.153 C825.257,268.403 799.007,236.033 778.887,242.153 C770.137,242.153 762.257,254.408 760.512,264.028 C757.882,266.658 731.632,300.778 726.387,306.908 C717.637,305.153 697.507,290.278 691.387,285.033 C686.137,287.653 657.257,348.033 659.887,351.528 C662.507,355.033 674.757,362.028 674.757,362.028 z M796.387,309.528 C796.387,309.528 794.632,311.283 792.012,315.658 M785.882,272.778 C787.637,265.778 794.632,264.908 798.132,265.778 M835.762,329.653 C835.762,334.028 839.262,343.658 841.882,346.283 M846.257,327.028 C846.257,330.533 847.132,338.403 852.387,339.283 M852.387,320.033 C853.262,323.533 854.132,332.283 858.507,331.403 M854.132,312.153 C854.132,312.153 855.882,316.528 861.137,317.408" fill-opacity="0" stroke="#1A1919" stroke-width="7.5" stroke-linecap="round" stroke-linejoin="round" id="path851"/>
    <path d="M648.507,260.533 C669.512,256.158 693.132,255.278 701.007,254.408 C704.512,256.158 725.512,317.408 687.882,362.908 C680.007,369.908 656.387,373.403 656.387,373.403 C656.387,373.403 643.262,320.903 642.387,314.783 C641.507,308.658 648.507,260.533 648.507,260.533" fill="#417AB1" id="path853"/>
    <path d="M648.507,260.533 C669.512,256.158 693.132,255.278 701.007,254.408 C704.512,256.158 725.512,317.408 687.882,362.908 C680.007,369.908 656.387,373.403 656.387,373.403 C656.387,373.403 643.262,320.903 642.387,314.783 C641.507,308.658 648.507,260.533 648.507,260.533 z M78.887,357.653 C75.382,357.653 45.632,379.528 44.762,386.528 M66.637,353.278 C63.132,354.158 39.512,364.653 36.882,376.033 M60.507,342.778 C57.882,344.528 40.387,355.033 36.882,359.408" fill-opacity="0" stroke="#1A1919" stroke-width="7.5" stroke-linecap="round" stroke-linejoin="round" id="path855"/>
    <path d="M367.637,340.153 C382.507,360.278 407.012,397.028 463.887,396.158 C520.762,395.278 569.757,384.783 576.762,383.033 C578.507,381.283 603.887,351.528 607.387,311.283 C610.882,271.033 604.757,262.283 602.132,252.653 C602.132,252.653 572.387,248.278 562.757,245.658 C588.132,218.533 630.687,160.818 631.882,138.033 C632.757,121.408 624.887,109.158 615.257,103.908 C607.387,99.533 596.882,96.033 592.507,96.908 C588.132,97.778 544.382,110.903 520.762,133.658 C512.882,138.033 480.507,217.658 476.132,222.908 C471.757,228.158 367.637,340.153 367.637,340.153" fill="#F4BB9D" id="path857"/>
    <path d="M367.637,340.153 C382.507,360.278 407.012,397.028 463.887,396.158 C520.762,395.278 569.757,384.783 576.762,383.033 C578.507,381.283 603.887,351.528 607.387,311.283 C610.882,271.033 604.757,262.283 602.132,252.653 C602.132,252.653 572.387,248.278 562.757,245.658 C588.132,218.533 630.687,160.818 631.882,138.033 C632.757,121.408 624.887,109.158 615.257,103.908 C607.387,99.533 596.882,96.033 592.507,96.908 C588.132,97.778 544.382,110.903 520.762,133.658 C512.882,138.033 480.507,217.658 476.132,222.908 C471.757,228.158 367.637,340.153 367.637,340.153 z" fill-opacity="0" stroke="#1A1919" stroke-width="7.5" stroke-linecap="round" stroke-linejoin="round" id="path859"/>
    <path d="M469.132,82.908 C469.132,61.908 495.382,69.783 504.132,78.533 C512.882,87.283 532.132,109.158 514.632,133.658 L469.132,82.908" fill="#F4BB9D" id="path861"/>
    <path d="M469.132,82.908 C469.132,61.908 495.382,69.783 504.132,78.533 C512.882,87.283 532.132,109.158 514.632,133.658 z M498.012,81.158 C491.882,79.408 484.882,82.033 489.257,93.403" fill-opacity="0" stroke="#1A1919" stroke-width="7.5" stroke-linecap="round" stroke-linejoin="round" id="path863"/>
    <path d="M474.382,306.908 L376.507,330.613 C371.007,336.528 367.637,340.153 367.637,340.153 C370.107,343.503 376.772,351.893 379.882,355.903 C452.877,339.428 468.392,313.758 474.382,306.908" fill="#1A1919" id="path865"/>
    <path d="M474.382,306.908 L376.507,330.613 C371.007,336.528 367.637,340.153 367.637,340.153 C370.107,343.503 376.772,351.893 379.882,355.903 C452.877,339.428 468.392,313.758 474.382,306.908 z" fill-opacity="0" stroke="#1A1919" stroke-width="5" stroke-linecap="round" stroke-linejoin="round" id="path867"/>
    <path d="M400.887,40.033 C439.382,54.028 475.647,81.238 503.262,112.658 C528.637,141.528 557.192,229.653 482.257,299.908 C468.262,313.033 387.762,369.028 299.382,329.653 C290.632,335.778 255.632,333.158 237.262,312.153 C218.887,291.158 223.262,262.283 246.882,269.283 C246.882,269.283 260.007,275.408 263.507,277.153 C260.007,274.528 233.757,242.153 231.132,215.033 C232.012,207.153 243.387,173.033 245.137,166.033 C245.137,166.033 251.257,187.033 254.757,189.653 C256.512,181.783 272.257,147.658 272.257,147.658 C272.257,147.658 279.257,168.658 282.762,168.658 C303.757,151.158 323.887,131.033 327.382,120.533 C329.132,124.028 329.132,153.783 327.382,160.783 C337.887,158.158 378.132,111.783 370.262,60.158 C373.757,60.158 391.257,76.783 394.757,82.033 C399.132,71.528 403.512,61.033 400.887,40.033" fill="#F4BB9D" id="path869"/>
    <path d="M400.887,40.033 C439.382,54.028 475.647,81.238 503.262,112.658 C528.637,141.528 557.192,229.653 482.257,299.908 C468.262,313.033 387.762,369.028 299.382,329.653 C290.632,335.778 255.632,333.158 237.262,312.153 C218.887,291.158 223.262,262.283 246.882,269.283 C246.882,269.283 260.007,275.408 263.507,277.153 C260.007,274.528 233.757,242.153 231.132,215.033 C232.012,207.153 243.387,173.033 245.137,166.033 C245.137,166.033 251.257,187.033 254.757,189.653 C256.512,181.783 272.257,147.658 272.257,147.658 C272.257,147.658 279.257,168.658 282.762,168.658 C303.757,151.158 323.887,131.033 327.382,120.533 C329.132,124.028 329.132,153.783 327.382,160.783 C337.887,158.158 378.132,111.783 370.262,60.158 C373.757,60.158 391.257,76.783 394.757,82.033 C399.132,71.528 403.512,61.033 400.887,40.033 z M241.637,291.158 C239.012,281.528 252.137,285.903 264.382,291.158 C262.637,292.908 256.512,296.403 261.757,299.028 C267.012,301.658 276.632,305.153 276.632,305.153 M408.757,168.658 C416.637,166.033 424.512,157.283 424.512,157.283 C424.512,157.283 428.887,171.283 427.137,179.158" fill-opacity="0" stroke="#1A1919" stroke-width="7.5" stroke-linecap="round" stroke-linejoin="round" id="path871"/>
    <path d="M346.227,198.403 C346.227,204.948 340.922,210.248 334.382,210.248 C327.847,210.248 322.542,204.948 322.542,198.403 C322.542,191.868 327.847,186.563 334.382,186.563 C340.922,186.563 346.227,191.868 346.227,198.403" fill="#1A1919" id="path873"/>
    <path d="M449.477,125.783 C449.477,132.323 444.177,137.623 437.637,137.623 C431.097,137.623 425.792,132.323 425.792,125.783 C425.792,119.243 431.097,113.938 437.637,113.938 C444.177,113.938 449.477,119.243 449.477,125.783" fill="#1A1919" id="path875"/>
    <path d="M432.382,216.783 C420.137,228.158 386.882,236.908 382.507,235.153 C387.762,259.653 406.132,293.783 425.382,285.903 C440.272,279.818 439.382,247.408 432.382,216.783" fill="#1A1919" id="path877"/>
    <path d="M452.507,55.783 C453.387,59.283 453.387,71.528 449.882,78.533 C448.132,77.658 442.882,55.783 426.257,40.033" fill="#2D2118" id="path879"/>
    <path d="M452.507,55.783 C453.387,59.283 453.387,71.528 449.882,78.533 C448.132,77.658 442.882,55.783 426.257,40.033" fill-opacity="0" stroke="#1A1919" stroke-width="7.5" stroke-linecap="round" stroke-linejoin="round" id="path881"/>
    <path d="M436.707,264.903 C435.447,275.418 431.947,283.218 425.382,285.903 C406.132,293.783 387.762,259.653 382.507,235.153 C385.287,236.268 399.697,233.148 412.992,227.808 C416.637,229.908 434.027,256.148 436.707,264.903" fill="#E05541" id="path883"/>
    <path d="M681.922,366.388 C686.687,369.288 691.672,372.233 696.847,374.798 C706.372,359.723 714.127,324.323 713.262,313.033 L681.922,366.388" fill="#1A1919" id="path885"/>
    <path d="M681.922,366.388 C686.687,369.288 691.672,372.233 696.847,374.798 C706.372,359.723 714.127,324.323 713.262,313.033 z" fill-opacity="0" stroke="#1A1919" stroke-width="5" stroke-linecap="round" stroke-linejoin="round" id="path887"/>
    <path d="M386.637,249.253 C384.867,244.443 383.472,239.638 382.507,235.153 C386.882,236.908 420.137,228.158 432.382,216.783 C433.512,221.718 434.482,226.703 435.252,231.613 C430.632,236.908 405.637,250.233 386.637,249.253" fill="#FFFFFE" id="path889"/>
    <path d="M432.382,216.783 C420.137,228.158 386.882,236.908 382.507,235.153 C387.762,259.653 406.132,293.783 425.382,285.903 C440.272,279.818 439.382,247.408 432.382,216.783 z" fill-opacity="0" stroke="#1A1919" stroke-width="7.5" stroke-linecap="round" stroke-linejoin="round" id="path891"/>
    <path d="M349.557,228.303 C352.897,235.543 347.242,245.263 336.927,250.018 C326.612,254.773 315.547,252.753 312.207,245.513 C308.872,238.268 314.532,228.548 324.842,223.798 C335.157,219.038 346.222,221.063 349.557,228.303" fill="#EB9174" id="path893"/>
    <path d="M494.212,115.713 C499.477,121.708 496.822,132.638 488.282,140.133 C479.752,147.623 468.567,148.838 463.307,142.848 C458.047,136.853 460.702,125.923 469.232,118.433 C477.772,110.938 488.952,109.723 494.212,115.713" fill="#EB9174" id="path895"/>
    <path d="M477.012,158.158 C477.012,158.158 456.007,166.908 454.257,172.153 C452.507,177.408 455.137,181.783 460.382,181.783 C465.632,181.783 477.012,158.158 477.012,158.158" fill="#F4BB9D" id="path897"/>
    <path d="M477.012,158.158 C477.012,158.158 456.007,166.908 454.257,172.153 C452.507,177.408 455.137,181.783 460.382,181.783 C465.632,181.783 477.012,158.158 477.012,158.158 z" fill-opacity="0" stroke="#1A1919" stroke-width="7.5" stroke-linecap="round" stroke-linejoin="round" id="path899"/>
    <path d="M592.507,96.908 C588.132,97.778 544.382,110.903 520.762,133.658 C507.637,138.033 484.012,152.033 480.507,154.653 C477.012,157.283 466.007,166.483 462.487,171.183 C457.237,178.183 451.632,188.783 454.257,194.028 L458.632,198.403 C458.632,198.403 463.007,207.153 470.007,201.033 C473.507,206.283 483.132,206.283 488.387,202.778 C490.137,207.153 498.012,211.528 505.007,204.533 C512.012,197.533 520.762,190.533 520.762,190.533 C526.882,189.653 548.757,187.033 554.887,164.283 C565.382,166.033 593.382,160.783 603.012,153.783" fill="#F4BB9D" id="path901"/>
    <path d="M592.507,96.908 C588.132,97.778 544.382,110.903 520.762,133.658 C507.637,138.033 484.012,152.033 480.507,154.653 C477.012,157.283 466.007,166.483 462.487,171.183 C457.237,178.183 451.632,188.783 454.257,194.028 L458.632,198.403 C458.632,198.403 463.007,207.153 470.007,201.033 C473.507,206.283 483.132,206.283 488.387,202.778 C490.137,207.153 498.012,211.528 505.007,204.533 C512.012,197.533 520.762,190.533 520.762,190.533 C526.882,189.653 548.757,187.033 554.887,164.283 C565.382,166.033 593.382,160.783 603.012,153.783 M512.882,178.283 C509.382,180.033 491.007,194.028 488.387,202.778 M498.887,171.283 C498.887,171.283 475.262,188.198 472.637,201.323 M489.552,163.403 C486.052,166.033 465.052,179.158 459.802,198.403" fill-opacity="0" stroke="#1A1919" stroke-width="7.5" stroke-linecap="round" stroke-linejoin="round" id="path903"/>
    <path d="M158.507,217.658 C149.762,208.033 111.257,191.408 96.387,185.278 C81.512,179.158 86.757,169.533 94.637,162.533 C102.507,155.533 136.637,148.533 156.757,205.408 L158.507,217.658" fill="#97D2D8" id="path905"/>
    <path d="M158.507,217.658 C149.762,208.033 111.257,191.408 96.387,185.278 C81.512,179.158 86.757,169.533 94.637,162.533 C102.507,155.533 136.637,148.533 156.757,205.408 z" fill-opacity="0" stroke="#1A1919" stroke-width="7.5" stroke-linecap="round" stroke-linejoin="round" id="path907"/>
    <path d="M576.762,383.033 C578.507,381.283 603.887,351.528 607.387,311.283 C610.882,271.033 604.757,262.283 602.132,252.653 L603.887,248.278 L616.137,249.158 C618.757,244.783 655.512,238.658 666.882,270.153 C680.007,269.283 697.507,267.533 701.882,265.778 C707.132,276.283 723.757,326.158 694.887,362.908 C687.882,375.153 673.012,379.528 666.007,382.153 C654.632,383.033 633.637,377.778 629.262,376.033 C624.887,378.658 602.132,385.658 591.632,386.528 C583.757,392.653 575.882,391.783 576.762,383.033" fill="#417AB1" id="path913"/>
    <path d="M576.762,383.033 C578.507,381.283 603.887,351.528 607.387,311.283 C610.882,271.033 604.757,262.283 602.132,252.653 L603.887,248.278 L616.137,249.158 C618.757,244.783 655.512,238.658 666.882,270.153 C680.007,269.283 697.507,267.533 701.882,265.778 C707.132,276.283 723.757,326.158 694.887,362.908 C687.882,375.153 673.012,379.528 666.007,382.153 C654.632,383.033 633.637,377.778 629.262,376.033 C624.887,378.658 602.132,385.658 591.632,386.528 C583.757,392.653 575.882,391.783 576.762,383.033 z M618.757,371.658 C618.757,371.658 624.007,375.153 629.262,376.033 M614.382,256.158 L619.632,257.908 M615.257,267.533 L620.512,266.658 M616.137,285.903 L622.257,285.903 M617.012,301.658 L622.257,300.778 M612.637,325.278 L617.012,324.408 M607.387,344.528 L612.637,345.408 M603.012,356.783 L609.132,356.783 M598.637,364.653 L604.757,366.403 M593.382,373.403 L599.512,373.403" fill-opacity="0" stroke="#1A1919" stroke-width="7.5" stroke-linecap="round" stroke-linejoin="round" id="path915"/>
    <path d="M827.882,212.408 C830.217,208.908 848.887,197.238 848.887,197.238 C873.382,180.903 970.717,161.573 936.387,127.238 C903.717,94.573 838.382,177.408 831.387,201.908 L827.882,212.408" fill="#97D2D8" id="path917"/>
    <path d="M827.882,212.408 C830.217,208.908 848.887,197.238 848.887,197.238 C873.382,180.903 970.717,161.573 936.387,127.238 C903.717,94.573 838.382,177.408 831.387,201.908 z" fill-opacity="0" stroke="#1A1919" stroke-width="7.5" stroke-linecap="round" stroke-linejoin="round" id="path919"/>
    <path d="M744.642,223.933 C733.607,210.153 706.032,124.053 744.237,115.888 C776.907,108.908 757.672,178.368 755.412,191.783 C753.752,201.678 748.767,223.118 750.402,229.723" fill="#97D2D8" id="path921"/>
    <path d="M744.642,223.933 C733.607,210.153 706.032,124.053 744.237,115.888 C776.907,108.908 757.672,178.368 755.412,191.783 C753.752,201.678 748.767,223.118 750.402,229.723" fill-opacity="0" stroke="#1A1919" stroke-width="7.5" stroke-linecap="round" stroke-linejoin="round" id="path923"/>
    <path d="M919.692,65.293 C937.207,84.628 906.372,95.668 885.337,102.753 C866.972,108.948 854.847,114.453 826.187,133.823 C825.237,130.453 885.862,27.958 919.692,65.293" fill="#97D2D8" id="path925"/>
    <path d="M919.692,65.293 C937.207,84.628 906.372,95.668 885.337,102.753 C866.972,108.948 854.847,114.453 826.187,133.823 C825.237,130.453 885.862,27.958 919.692,65.293 z M323.887,72.408 C315.137,79.408 292.382,140.658 292.382,158.158 M364.137,19.908 C355.382,32.153 329.132,47.908 283.632,53.158 M281.882,72.408 C276.632,79.408 273.132,135.408 282.762,168.658 M273.132,100.408 C271.387,109.158 245.137,152.908 220.632,175.658" fill-opacity="0" stroke="#1A1919" stroke-width="7.5" stroke-linecap="round" stroke-linejoin="round" id="path927"/>
    <path d="M294.132,318.278 L302.012,327.908 C302.012,327.908 292.382,331.403 286.257,332.283 C289.757,332.283 298.507,331.403 294.132,318.278" fill="#1A1919" id="path929"/>
    <path d="M294.132,318.278 L302.012,327.908 C302.012,327.908 292.382,331.403 286.257,332.283 C289.757,332.283 298.507,331.403 294.132,318.278 z" fill-opacity="0" stroke="#1A1919" stroke-width="5" stroke-linecap="round" stroke-linejoin="round" id="path931"/>
    <path d="M10.162,268.943 C41.172,270.573 73.817,273.838 95.037,257.518 C116.252,241.198 122.782,223.243 135.837,229.773 C148.897,236.303 142.367,260.778 166.847,265.683 C191.332,270.573 269.672,259.153 290.892,244.458 C312.112,229.773 325.167,242.828 331.697,259.148 C338.222,275.473 346.387,275.473 374.132,273.838 C401.877,272.208 468.802,234.668 486.752,244.458 C504.707,254.253 481.852,272.208 506.337,272.208 C530.822,272.208 589.572,239.568 618.957,242.828 C648.332,246.093 632.017,278.738 648.332,278.738 C664.657,278.738 756.057,241.198 767.482,249.358 C778.912,257.518 769.117,272.208 791.967,273.838 C818.082,267.313 893.157,219.978 904.582,242.828 C916.007,265.683 912.747,272.208 942.122,275.473 C971.502,278.738 992.717,277.108 992.717,277.108 M181.537,388.093 C227.237,360.343 240.292,350.553 266.412,358.713 C292.527,366.873 263.147,386.463 297.422,388.093 C331.697,389.723 344.757,373.398 349.652,373.398 C354.547,373.398 356.182,368.508 388.822,391.353" fill-opacity="0" stroke="#1A1919" stroke-width="7.5" stroke-linecap="round" stroke-linejoin="round" id="path933"/>
  </g>
</svg>
